Coordinates
version=1
nRows=10
nColumns=23
inDegrees=yes

Units are S.I. units (second, meters, Newtons, ...)
If the header above contains a line with 'inDegrees', this indicates whether rotational values are in degrees (yes) or radians (no).

endheader
time	sacrum_pitch	sacrum_roll	sacrum_yaw	sacrum_x	sacrum_y	sacrum_z	sacroiliac_r_flx	hip_r_flx	hip_r_add	hip_r_int	knee_r_flx	ankle_r_flx	ankle_r_add	ankle_r_int	sacroiliac_l_flx	hip_l_flx	hip_l_add	hip_l_int	knee_l_flx	ankle_l_flx	ankle_l_add	ankle_l_int
      3.06500000	     24.06364134	     -1.93775326	     -2.63705705	      0.04581612	      0.05427325	     -0.00589331	      3.69999987	      0.10999475	    -23.22738555	      0.55307399	   -116.85557021	     14.11749570	     -4.99999985	      0.00000000	      3.70000000	     54.39590353	    -18.90905086	    -12.93510518	    -97.23544055	     22.49653260	     -4.99999985	      0.00000000
      3.07000000	     23.76303699	     -2.47059178	     -2.30556904	      0.04749423	      0.05375803	     -0.00649931	      3.69999987	     -1.30508064	    -22.38078087	      2.17077897	   -116.09279175	     13.59391419	     -4.99999985	      0.00000000	      3.70000000	     55.34489510	    -18.63748613	    -13.09933191	   -100.04598360	     23.93131109	     -4.99999985	      0.00000000
      3.07500000	     24.01332241	     -3.08833628	     -1.89777383	      0.04924265	      0.05310730	     -0.00738067	      3.69999987	     -2.35092669	    -22.16977860	      2.19379224	   -115.76776623	     12.15414468	     -4.99999985	      0.00000000	      3.70000000	     55.93278740	    -18.43778627	    -13.11054388	   -103.39641369	     25.67353728	     -4.99999985	      0.00000000
      3.08000000	     24.22032027	     -5.07919373	     -1.43279776	      0.05081745	      0.05275405	     -0.00770789	      3.69999987	     -2.39687136	    -20.53686757	      2.11504534	   -115.72097311	      7.54421716	     -4.99999985	      0.00000000	      3.70000000	     55.32407704	    -18.61149623	    -11.43362380	   -104.94092908	     30.76476489	     -4.99999985	      0.00000000
      3.08500000	     24.01199923	     -4.88205308	     -0.99516397	      0.05254598	      0.05213059	     -0.00836992	      3.69999987	     -3.00790673	    -20.59876057	      3.33553165	   -115.66436637	      6.51458513	     -4.99999985	      0.00000000	      3.70000000	     55.76063766	    -18.06186947	    -11.84100457	   -107.76694598	     31.61760327	     -4.99999985	      0.00000000
      3.09000000	     23.45631287	     -5.18921026	     -0.80654407	      0.05398757	      0.05217482	     -0.00864715	      3.69999987	     -3.06965057	    -20.52775348	      3.31407648	   -115.56184333	      6.54825206	     -4.99999985	      0.00000000	      3.70000000	     55.03368679	    -17.96433086	    -11.75073886	   -107.80175231	     31.40350552	     -4.99999985	      0.00000000
      3.09500000	     23.95513062	     -6.65394191	     -0.15060438	      0.05576648	      0.05144618	     -0.00902619	      3.69999987	     -2.72376522	    -15.93677856	      4.84569920	   -116.22821801	     -3.14918691	     -4.99999985	      0.00000000	      3.70000000	     56.03200446	    -17.49439720	     -9.57183522	   -112.26674237	     34.74644999	     -4.99999985	      0.00000000
      3.10000000	     24.02897503	     -7.16132713	      0.30819726	      0.05743624	      0.05112380	     -0.00908471	      3.69999987	     -2.67353334	    -15.26122963	      5.28782247	   -117.49601042	     -4.08631790	     -4.99999985	      0.00000000	      3.70000000	     56.72456675	    -17.28704509	     -7.97122547	   -115.66143721	     35.27481007	     -4.99999985	      0.00000000
      3.10500000	     24.00514213	     -8.54371852	      0.71590531	      0.05902716	      0.05097784	     -0.00890088	      3.69999987	     -1.66845462	    -12.27306224	      5.36641831	   -119.57111614	     -6.23234886	     -4.99999985	      0.00000000	      3.70000000	     57.15556488	    -15.42438486	     -4.47635091	   -117.91936493	     35.73624986	     -4.99999985	      0.00000000
      3.11000000	     23.49304767	     -8.57180571	      1.39584954	      0.06080219	      0.05097381	     -0.00910557	      3.69999987	     -1.57797462	    -12.39415022	      5.68376018	   -120.27577781	     -6.03170585	     -4.99999985	      0.00000000	      3.70000000	     56.50699043	    -15.41729560	     -4.47118481	   -118.47998124	     35.70421873	     -4.99999985	      0.00000000
